<svg height='300px' width='300px'  fill="#000000" xmlns="http://www.w3.org/2000/svg" viewBox="0 0 32 32" x="0px" y="0px"><title>wedding</title><g><path d="M21,13a8,8,0,0,0-5,1.76,8,8,0,1,0,0,12.48A8,8,0,1,0,21,13ZM16,24.31a6,6,0,0,1,0-6.62,6,6,0,0,1,0,6.62ZM5,21a6,6,0,0,1,9.6-4.79,8,8,0,0,0,0,9.58A6,6,0,0,1,5,21Zm16,6a6,6,0,0,1-3.6-1.21,8,8,0,0,0,0-9.58A6,6,0,1,1,21,27Z"></path><path d="M15.29,13.78a1,1,0,0,0,1.42,0l4-4a3.84,3.84,0,0,0-4.73-6,3.84,3.84,0,0,0-4.73,6Zm-2.61-8A1.86,1.86,0,0,1,14,5.19a1.83,1.83,0,0,1,1.3.54,1,1,0,0,0,1.42,0,1.85,1.85,0,0,1,2.61,2.61L16,11.66,12.68,8.34A1.85,1.85,0,0,1,12.68,5.73Z"></path></g></svg>